<svg width="54" height="54" viewBox="0 0 54 54" fill="none" xmlns="http://www.w3.org/2000/svg">
<path d="M47.25 3.375C49.114 3.375 50.625 4.88604 50.625 6.75V33.75C50.625 35.614 49.114 37.125 47.25 37.125H38.8125C36.6879 37.125 34.6873 38.1253 33.4125 39.825L27 48.375L20.5875 39.825C19.3127 38.1253 17.3121 37.125 15.1875 37.125H6.75C4.88604 37.125 3.375 35.614 3.375 33.75V6.75C3.375 4.88604 4.88604 3.375 6.75 3.375H47.25ZM6.75 0C3.02208 0 0 3.02208 0 6.75V33.75C0 37.4779 3.02208 40.5 6.75 40.5H15.1875C16.2498 40.5 17.2501 41.0002 17.8875 41.85L24.3 50.4C25.65 52.2 28.35 52.2 29.7 50.4L36.1125 41.85C36.7499 41.0002 37.7502 40.5 38.8125 40.5H47.25C50.9779 40.5 54 37.4779 54 33.75V6.75C54 3.02208 50.9779 0 47.25 0H6.75Z" fill="#FFFFEC"/>
<path d="M27 13.4755C32.6173 7.70176 46.6606 17.8059 27 30.7969C7.33944 17.8059 21.3827 7.70176 27 13.4755Z" fill="#FFFFEC"/>
</svg>
