<svg width="54" height="54" viewBox="0 0 54 54" fill="none" xmlns="http://www.w3.org/2000/svg">
<path d="M40.9943 0.494257C41.6533 -0.164752 42.7218 -0.164752 43.3808 0.494257L53.5058 10.6193C54.1648 11.2783 54.1648 12.3467 53.5058 13.0057L19.7558 46.7557C19.5942 46.9173 19.4015 47.0444 19.1893 47.1293L2.31427 53.8793C1.68751 54.13 0.971637 53.9831 0.494307 53.5057C0.0169759 53.0284 -0.129962 52.3125 0.120745 51.6858L6.87075 34.8108C6.95562 34.5986 7.08271 34.4059 7.24431 34.2443L40.9943 0.494257ZM37.824 8.4375L45.5625 16.176L49.9261 11.8125L42.1875 4.07399L37.824 8.4375ZM43.1761 18.5625L35.4375 10.824L13.5 32.7615V33.75H15.1875C16.1195 33.75 16.875 34.5055 16.875 35.4375V37.125H18.5625C19.4945 37.125 20.25 37.8805 20.25 38.8125V40.5H21.2386L43.1761 18.5625ZM10.2319 36.0297L9.87571 36.3858L4.7167 49.2833L17.6142 44.1243L17.9704 43.7682C17.3305 43.5284 16.875 42.9111 16.875 42.1875V40.5H15.1875C14.2556 40.5 13.5 39.7445 13.5 38.8125V37.125H11.8125C11.0889 37.125 10.4717 36.6695 10.2319 36.0297Z" fill="#FFFFEC"/>
</svg>
