<svg width="28" height="28" viewBox="0 0 28 28" fill="none" xmlns="http://www.w3.org/2000/svg">
<path d="M20.4716 17.826C21.8134 15.9991 22.6061 13.7436 22.6061 11.303C22.6061 5.21116 17.6676 0.272728 11.5758 0.272728C5.48391 0.272728 0.545471 5.21116 0.545471 11.303C0.545471 17.3949 5.48391 22.3333 11.5758 22.3333C14.017 22.3333 16.273 21.5403 18.1002 20.1977L18.0987 20.1988C18.1488 20.2667 18.2045 20.3317 18.266 20.3931L24.8001 26.9272C25.4628 27.5899 26.5373 27.5899 27.2 26.9272C27.8627 26.2645 27.8627 25.19 27.2 24.5273L20.6658 17.9932C20.6044 17.9318 20.5394 17.876 20.4716 17.826ZM20.9091 11.303C20.9091 16.4577 16.7304 20.6364 11.5758 20.6364C6.42112 20.6364 2.24244 16.4577 2.24244 11.303C2.24244 6.14837 6.42112 1.9697 11.5758 1.9697C16.7304 1.9697 20.9091 6.14837 20.9091 11.303Z" fill="#FFFFEC"/>
</svg>
