<svg width="52" height="54" viewBox="0 0 52 54" fill="none" xmlns="http://www.w3.org/2000/svg">
<path d="M37.125 5.0625V8.4375H48.9375C49.8695 8.4375 50.625 9.19302 50.625 10.125C50.625 11.057 49.8695 11.8125 48.9375 11.8125H47.1204L44.2423 47.7883C43.9617 51.2963 41.033 54 37.5138 54H16.4862C12.967 54 10.0383 51.2963 9.75767 47.7883L6.87961 11.8125H5.0625C4.13052 11.8125 3.375 11.057 3.375 10.125C3.375 9.19302 4.13052 8.4375 5.0625 8.4375H16.875V5.0625C16.875 2.26656 19.1416 0 21.9375 0H32.0625C34.8584 0 37.125 2.26656 37.125 5.0625ZM20.25 5.0625V8.4375H33.75V5.0625C33.75 4.13052 32.9945 3.375 32.0625 3.375H21.9375C21.0055 3.375 20.25 4.13052 20.25 5.0625ZM15.1875 16.9712L16.875 45.6587C16.9297 46.5891 17.7283 47.2989 18.6586 47.2442C19.589 47.1895 20.2989 46.3909 20.2441 45.4605L18.5566 16.773C18.5019 15.8426 17.7033 15.1328 16.773 15.1875C15.8426 15.2422 15.1327 16.0408 15.1875 16.9712ZM37.227 15.1904C36.2967 15.1357 35.4981 15.8455 35.4433 16.7759L33.7558 45.4634C33.7011 46.3938 34.411 47.1924 35.3413 47.2471C36.2717 47.3018 37.0703 46.592 37.125 45.6616L38.8125 16.9741C38.8673 16.0437 38.1574 15.2451 37.227 15.1904ZM27 15.1875C26.068 15.1875 25.3125 15.943 25.3125 16.875V45.5625C25.3125 46.4945 26.068 47.25 27 47.25C27.932 47.25 28.6875 46.4945 28.6875 45.5625V16.875C28.6875 15.943 27.932 15.1875 27 15.1875Z" fill="#B50E0E"/>
</svg>
